<?xml version="1.0" standalone="no"?>
<!DOCTYPE svg PUBLIC "-//W3C//DTD SVG 20010904//EN"
 "http://www.w3.org/TR/2001/REC-SVG-20010904/DTD/svg10.dtd">
<svg version="1.0" xmlns="http://www.w3.org/2000/svg"
 width="582.000000pt" height="582.000000pt" viewBox="0 0 582.000000 582.000000"
 preserveAspectRatio="xMidYMid meet">
<metadata>
Created by potrace 1.14, written by Peter Selinger 2001-2017
</metadata>
<g transform="translate(0.000000,582.000000) scale(0.100000,-0.100000)"
fill="#000000" stroke="none">
<path d="M2865 5488 c-83 -11 -147 -34 -207 -75 -29 -19 -579 -562 -1223
-1206 -1073 -1074 -1174 -1177 -1203 -1237 -70 -144 -72 -288 -5 -428 14 -30
33 -65 42 -76 9 -11 543 -547 1186 -1191 889 -890 1183 -1179 1225 -1202 75
-43 159 -65 238 -64 98 1 125 8 222 54 60 28 151 117 1251 1216 1101 1101
1188 1191 1217 1251 74 156 70 317 -11 460 -23 42 -316 341 -1206 1231 -718
718 -1194 1186 -1221 1202 -96 55 -202 78 -305 65z m126 -334 c37 -18 2302
-2282 2329 -2327 26 -42 26 -112 0 -154 -25 -42 -2281 -2298 -2323 -2323 -42
-26 -112 -26 -154 0 -42 25 -2298 2281 -2323 2323 -26 42 -26 112 0 154 25 42
2281 2298 2323 2323 39 24 106 26 148 4z"/>
<path d="M2855 4554 c-43 -21 -57 -45 -103 -169 -71 -195 -472 -1267 -502
-1345 -15 -41 -61 -163 -100 -270 -39 -107 -76 -204 -80 -215 -14 -31 -120
-321 -120 -326 0 -3 434 -5 965 -5 531 1 965 2 965 3 0 5 -153 431 -190 528
-22 57 -303 826 -360 985 -90 252 -122 337 -136 368 -8 18 -12 37 -10 41 3 4
127 7 275 7 149 -1 271 1 271 4 0 9 -813 410 -830 410 -8 0 -28 -7 -45 -16z
m26 -611 c29 -66 32 -69 94 -97 36 -16 65 -32 65 -35 0 -4 -29 -19 -64 -34
-62 -27 -64 -30 -97 -100 l-33 -72 -32 71 c-31 70 -33 71 -98 100 -36 16 -66
31 -66 35 0 3 30 19 66 34 64 27 66 29 96 96 17 38 32 69 34 69 2 0 18 -30 35
-67z m372 -649 c75 -35 75 -38 -12 -75 -50 -21 -55 -27 -86 -93 l-32 -71 -32
70 c-32 69 -33 70 -104 102 l-71 32 71 32 c71 32 71 32 103 103 l32 71 32 -70
c32 -68 35 -71 99 -101z m-603 -123 c0 -5 17 -47 39 -93 21 -45 47 -103 58
-128 19 -44 22 -46 162 -109 l143 -65 -44 -19 c-23 -11 -88 -41 -143 -67
l-100 -47 -59 -132 c-32 -72 -62 -133 -66 -136 -3 -2 -34 58 -67 133 l-61 137
-141 64 c-78 36 -138 68 -134 71 5 4 67 33 140 65 l131 58 51 111 c74 163 75
166 84 166 4 0 7 -4 7 -9z m785 -335 c27 -62 29 -64 98 -96 l71 -33 -70 -32
c-67 -31 -71 -34 -97 -93 -15 -34 -32 -64 -36 -66 -5 -3 -21 24 -36 59 -27 64
-29 66 -99 99 l-71 34 71 32 c69 31 71 33 98 96 16 35 32 64 36 64 4 0 20 -29
35 -64z"/>
<path d="M1670 1948 l0 -138 1245 0 1245 0 0 138 0 139 -1245 -1 -1245 0 0
-138z"/>
</g>
</svg>
